<svg width="110" height="110" viewBox="0 0 110 110" fill="none" xmlns="http://www.w3.org/2000/svg">
<path d="M28.5804 32.2055C31.7392 25.3512 34.0997 20.8573 37.9845 20.8573C41.8693 20.8573 44.2298 25.3512 47.3886 32.2021C48.0527 33.6438 48.7374 35.1269 49.4738 36.5686H55.9393C54.8279 34.7518 53.7337 32.4739 52.519 29.8382C49.3602 22.9804 45.7782 15.2073 37.9845 15.2073C30.1908 15.2073 26.6087 22.9804 23.45 29.8382C22.2353 32.4739 21.1411 34.7518 20.0297 36.5686H26.4952C27.2316 35.1269 27.9163 33.6438 28.5804 32.2021V32.2055Z" fill="url(#paint0_linear_733_1071)"/>
<path d="M33.0296 44.4621C36.1987 44.4621 38.7794 47.0394 38.7794 50.2085V53.9006H43.3008V50.2085C43.3008 48.082 42.6504 46.1034 41.5356 44.4621H58.465V39.9407H18.3333V44.4621H33.0296Z" fill="url(#paint1_linear_733_1071)"/>
<path d="M54.6249 61.7323H61.0904C61.8268 60.2905 62.5115 58.8075 63.1756 57.3657C66.3344 50.5114 68.6949 46.0175 72.5797 46.0175C76.4646 46.0175 78.825 50.5114 81.9838 57.3623C82.6479 58.804 83.3327 60.2871 84.069 61.7288H90.5346C89.4231 59.912 88.3289 57.6341 87.1143 54.9983C83.9555 48.1405 80.3735 40.3675 72.5797 40.3675C64.786 40.3675 61.204 48.1405 58.0452 54.9983C56.8306 57.6341 55.7363 59.912 54.6249 61.7288V61.7323Z" fill="url(#paint2_linear_733_1071)"/>
<path d="M91.6666 69.6257V65.1043H52.932V65.1112H33.5663C30.3972 65.1112 27.82 62.5305 27.82 59.3614V49.0936H23.2986V59.3614C23.2986 65.0252 27.906 69.6292 33.5663 69.6292H53.9298V69.6223H67.6248C70.4119 69.6223 72.7415 71.618 73.261 74.2538H56.7652V78.7752H79.3894C81.7567 78.7752 83.7938 80.2135 84.6746 82.2643H56.7652V84.525C56.7652 90.1888 61.3726 94.7928 67.0329 94.7928H89.6571V90.2714H67.0329C64.6656 90.2714 62.6285 88.8331 61.7476 86.7823H89.6537V84.5216C89.6537 78.8612 85.0463 74.2538 79.3859 74.2538H77.8272C77.6413 72.5505 77.0426 70.9711 76.1273 69.6223H91.6632L91.6666 69.6257Z" fill="url(#paint3_linear_733_1071)"/>
<defs>
<linearGradient id="paint0_linear_733_1071" x1="30.9959" y1="25.6815" x2="87.9883" y2="82.6704" gradientUnits="userSpaceOnUse">
<stop stop-color="#3CDBC0"/>
<stop offset="0.5" stop-color="#3EB1C8"/>
<stop offset="1" stop-color="#2D68C4"/>
</linearGradient>
<linearGradient id="paint1_linear_733_1071" x1="26.4367" y1="30.2407" x2="83.4256" y2="87.2296" gradientUnits="userSpaceOnUse">
<stop stop-color="#3CDBC0"/>
<stop offset="0.5" stop-color="#3EB1C8"/>
<stop offset="1" stop-color="#2D68C4"/>
</linearGradient>
<linearGradient id="paint2_linear_733_1071" x1="35.7169" y1="20.9606" x2="92.7058" y2="77.9529" gradientUnits="userSpaceOnUse">
<stop stop-color="#3CDBC0"/>
<stop offset="0.5" stop-color="#3EB1C8"/>
<stop offset="1" stop-color="#2D68C4"/>
</linearGradient>
<linearGradient id="paint3_linear_733_1071" x1="24.902" y1="31.7754" x2="81.8909" y2="88.7642" gradientUnits="userSpaceOnUse">
<stop stop-color="#3CDBC0"/>
<stop offset="0.5" stop-color="#3EB1C8"/>
<stop offset="1" stop-color="#2D68C4"/>
</linearGradient>
</defs>
</svg>
