<svg width="320" height="48" viewBox="0 0 320 48" fill="none" xmlns="http://www.w3.org/2000/svg">
<rect y="3.05176e-05" width="320" height="48" rx="4" fill="#FEE500"/>
<path d="M119.951 18.4969C119.935 23.4089 117.487 26.5609 113.551 28.5449L112.671 27.4569C114.879 26.4489 116.639 24.9449 117.631 22.9769L113.151 23.4569L112.895 22.2089L118.095 21.8089C118.303 21.1529 118.431 20.4489 118.463 19.6969H113.455V18.4969H119.951ZM123.487 17.0249V22.6569H125.711V23.8249H123.487V31.0089H122.079V17.0249H123.487ZM133.795 18.4969C133.779 23.4089 131.331 26.5609 127.395 28.5449L126.515 27.4569C128.723 26.4489 130.483 24.9449 131.475 22.9769L126.995 23.4569L126.739 22.2089L131.939 21.8089C132.147 21.1529 132.275 20.4489 132.307 19.6969H127.299V18.4969H133.795ZM137.331 17.0249V22.6569H139.555V23.8249H137.331V31.0089H135.923V17.0249H137.331ZM151.894 21.7769C151.894 23.9529 150.118 25.4569 147.382 25.6649V28.0329H152.998V29.2009H140.374V28.0329H145.958V25.6489C143.238 25.4249 141.478 23.9529 141.478 21.7769C141.478 19.4409 143.558 17.8889 146.678 17.8889C149.83 17.8889 151.894 19.4409 151.894 21.7769ZM150.438 21.7769C150.438 20.1929 148.95 19.0729 146.678 19.0729C144.422 19.0729 142.934 20.1929 142.934 21.7769C142.934 23.3769 144.422 24.4809 146.678 24.4809C148.934 24.4809 150.438 23.3769 150.438 21.7769ZM166.842 29.2329H154.218V28.0809H159.786V25.8729H155.738V21.3769H163.866V19.3289H155.706V18.1769H165.274V22.5289H157.146V24.7209H165.658V25.8729H161.21V28.0809H166.842V29.2329ZM183.833 31.0089H182.425V17.0249H183.833V31.0089ZM180.761 26.5929L179.913 27.6489C178.665 26.7849 177.049 25.1209 176.537 23.4889C176.041 25.2009 174.665 26.9769 173.081 28.0169L172.201 26.9769C174.297 25.6489 175.785 23.2169 175.785 20.6409V18.2569H177.257V20.5769C177.257 23.2009 178.825 25.4729 180.761 26.5929ZM186.221 19.1529V17.9849H193.853V19.1529H190.797V19.5369C190.797 21.5209 192.477 23.0729 194.061 23.5529L193.277 24.6889C192.029 24.1929 190.669 22.9929 190.093 21.7129C189.629 23.0569 188.125 24.4809 186.685 25.0729L185.853 23.9689C187.661 23.3129 189.357 21.5209 189.357 19.5689V19.1529H186.221ZM187.853 26.0009H196.909V31.0249H195.501V27.1689H187.853V26.0009ZM198.989 21.9049H196.909V25.2649H195.485V17.0249H196.909V20.7209H198.989V21.9049ZM212.977 24.0329H210.753V31.0089H209.329V17.0249H210.753V22.8489H212.977V24.0329ZM206.129 19.0889H201.953V17.9369H206.129V19.0889ZM208.161 21.4889H199.873V20.3529H208.161V21.4889ZM207.377 25.2329C207.377 26.8809 206.065 28.1609 204.081 28.1609C202.097 28.1609 200.769 26.9129 200.769 25.2329C200.769 23.5849 202.097 22.2729 204.081 22.2729C206.065 22.2729 207.377 23.5529 207.377 25.2329ZM205.985 25.2329C205.985 24.1929 205.169 23.4569 204.081 23.4569C202.993 23.4569 202.193 24.1929 202.193 25.2329C202.193 26.2569 202.977 26.9769 204.081 26.9769C205.233 26.9769 205.985 26.2569 205.985 25.2329ZM225.268 31.0089H223.844V17.0249H225.268V31.0089ZM221.172 18.5129C221.092 22.9609 218.5 26.2249 214.676 28.3049L213.812 27.2329C217.108 25.6489 219.38 22.7209 219.636 19.7129H214.436V18.5129H221.172Z" fill="black" fill-opacity="0.85"/>
<g clip-path="url(#clip0_450_421)">
<path fill-rule="evenodd" clip-rule="evenodd" d="M24.5334 14.9079C19.2311 14.9079 14.9333 18.2459 14.9333 22.3628C14.9333 24.9232 16.5956 27.1803 19.127 28.5228L18.0619 32.4341C17.9678 32.7797 18.361 33.0551 18.6629 32.8549L23.3316 29.7573C23.7256 29.7955 24.126 29.8178 24.5334 29.8178C29.8352 29.8178 34.1333 26.4799 34.1333 22.3628C34.1333 18.2459 29.8352 14.9079 24.5334 14.9079Z" fill="black"/>
</g>
<defs>
<clipPath id="clip0_450_421">
<rect width="19.2" height="18.1333" fill="white" transform="translate(14.9333 14.9334)"/>
</clipPath>
</defs>
</svg>
