<svg width="320" height="48" viewBox="0 0 320 48" fill="none" xmlns="http://www.w3.org/2000/svg">
<rect y="3.05176e-05" width="320" height="48" rx="4" fill="#03C75A"/>
<path d="M26.177 24.5003L20.9039 16.889H16.5333V31.1113H21.1119V23.4988L26.385 31.1113H30.7556V16.889H26.177V24.5003Z" fill="white"/>
<path d="M120.43 22.705H117.406V21.537H120.43V17.329H121.79V30.321H120.43V22.705ZM124.606 31.009H123.246V17.025H124.606V31.009ZM119.47 26.993C118.478 27.233 116.574 27.425 114.83 27.457H113.502V18.529H114.91V26.241C116.286 26.241 118.302 26.097 119.262 25.825L119.47 26.993ZM138.178 31.009H136.754V17.025H138.178V31.009ZM127.138 23.009C127.138 20.241 128.258 18.081 130.738 18.081C133.218 18.081 134.322 20.241 134.322 23.025C134.322 25.793 133.218 27.969 130.738 27.969C128.258 27.969 127.138 25.793 127.138 23.009ZM132.914 23.025C132.914 20.865 132.178 19.297 130.738 19.297C129.314 19.297 128.578 20.865 128.578 23.025C128.578 25.185 129.314 26.737 130.738 26.737C132.178 26.737 132.914 25.185 132.914 23.025ZM150.63 23.345H148.118V22.145H150.63V17.025H152.038V31.009H150.63V23.345ZM147.494 27.489H140.918V18.161H142.31V21.681H146.07V18.145H147.494V27.489ZM146.07 26.337V22.801H142.31V26.337H146.07ZM166.953 29.233H154.329V28.081H159.897V25.873H155.849V21.377H163.977V19.329H155.817V18.177H165.385V22.529H157.257V24.721H165.769V25.873H161.321V28.081H166.953V29.233ZM183.944 31.009H182.536V17.025H183.944V31.009ZM180.872 26.593L180.024 27.649C178.776 26.785 177.16 25.121 176.648 23.489C176.152 25.201 174.776 26.977 173.192 28.017L172.312 26.977C174.408 25.649 175.896 23.217 175.896 20.641V18.257H177.368V20.577C177.368 23.201 178.936 25.473 180.872 26.593ZM186.332 19.153V17.985H193.964V19.153H190.908V19.537C190.908 21.521 192.588 23.073 194.172 23.553L193.388 24.689C192.14 24.193 190.78 22.993 190.204 21.713C189.74 23.057 188.236 24.481 186.796 25.073L185.964 23.969C187.772 23.313 189.468 21.521 189.468 19.569V19.153H186.332ZM187.964 26.001H197.02V31.025H195.612V27.169H187.964V26.001ZM199.1 21.905H197.02V25.265H195.596V17.025H197.02V20.721H199.1V21.905ZM213.088 24.033H210.864V31.009H209.44V17.025H210.864V22.849H213.088V24.033ZM206.24 19.089H202.064V17.937H206.24V19.089ZM208.272 21.489H199.984V20.353H208.272V21.489ZM207.488 25.233C207.488 26.881 206.176 28.161 204.192 28.161C202.208 28.161 200.88 26.913 200.88 25.233C200.88 23.585 202.208 22.273 204.192 22.273C206.176 22.273 207.488 23.553 207.488 25.233ZM206.096 25.233C206.096 24.193 205.28 23.457 204.192 23.457C203.104 23.457 202.304 24.193 202.304 25.233C202.304 26.257 203.088 26.977 204.192 26.977C205.344 26.977 206.096 26.257 206.096 25.233ZM225.379 31.009H223.955V17.025H225.379V31.009ZM221.283 18.513C221.203 22.961 218.611 26.225 214.787 28.305L213.923 27.233C217.219 25.649 219.491 22.721 219.747 19.713H214.547V18.513H221.283Z" fill="white"/>
</svg>
