<svg width="320" height="48" viewBox="0 0 320 48" fill="none" xmlns="http://www.w3.org/2000/svg">
<rect y="3.05176e-05" width="320" height="48" rx="4" fill="#050708"/>
<g clip-path="url(#clip0_733_1079)">
<path d="M33.2806 30.424C32.9328 31.2276 32.5211 31.9672 32.0441 32.6473C31.3939 33.5744 30.8615 34.2161 30.4512 34.5724C29.8151 35.1573 29.1337 35.4569 28.4039 35.4739C27.8801 35.4739 27.2483 35.3249 26.5129 35.0225C25.7751 34.7215 25.097 34.5724 24.477 34.5724C23.8268 34.5724 23.1294 34.7215 22.3835 35.0225C21.6365 35.3249 21.0347 35.4824 20.5745 35.4981C19.8748 35.5279 19.1772 35.2198 18.481 34.5724C18.0367 34.1848 17.4808 33.5204 16.815 32.5791C16.1006 31.574 15.5133 30.4084 15.0531 29.0796C14.5604 27.6442 14.3133 26.2543 14.3133 24.9087C14.3133 23.3674 14.6464 22.0379 15.3135 20.9239C15.8378 20.0291 16.5353 19.3232 17.4083 18.805C18.2813 18.2868 19.2245 18.0227 20.2403 18.0058C20.7961 18.0058 21.525 18.1777 22.4308 18.5156C23.334 18.8547 23.914 19.0266 24.1682 19.0266C24.3583 19.0266 25.0026 18.8256 26.0948 18.4248C27.1276 18.0531 27.9993 17.8992 28.7134 17.9598C30.6485 18.116 32.1023 18.8788 33.0691 20.2531C31.3385 21.3017 30.4824 22.7704 30.4994 24.6545C30.5151 26.122 31.0474 27.3432 32.0938 28.3129C32.568 28.763 33.0975 29.1108 33.6867 29.3578C33.5589 29.7284 33.424 30.0833 33.2806 30.424ZM28.8426 12.9602C28.8426 14.1104 28.4224 15.1844 27.5848 16.1785C26.5739 17.3603 25.3513 18.0432 24.0254 17.9354C24.0085 17.7974 23.9987 17.6522 23.9987 17.4996C23.9987 16.3953 24.4794 15.2135 25.3331 14.2473C25.7593 13.7581 26.3014 13.3513 26.9587 13.0268C27.6146 12.7071 28.235 12.5303 28.8185 12.5C28.8355 12.6538 28.8426 12.8076 28.8426 12.9602V12.9602Z" fill="white"/>
</g>
<path d="M114.208 27.828L118.128 17.076H119.488L123.376 27.828H121.904L120.816 24.804H116.624L115.552 27.828H114.208ZM118.672 18.964L117.04 23.604H120.384L118.72 18.964H118.672ZM124.666 30.212V19.876H125.962V20.516H126.042C126.506 20.068 127.354 19.716 128.33 19.716C130.042 19.716 131.578 20.628 131.578 23.572V23.78C131.578 26.692 130.202 27.94 127.994 27.94C127.114 27.94 126.442 27.684 126.026 27.428V30.212H124.666ZM127.882 26.836C129.322 26.836 130.186 26.052 130.186 23.972V23.62C130.186 21.476 129.386 20.884 127.962 20.884C127.082 20.884 126.362 21.172 126.026 21.428V26.292C126.362 26.58 127.082 26.836 127.882 26.836ZM133.307 30.212V19.876H134.603V20.516H134.683C135.147 20.068 135.995 19.716 136.971 19.716C138.683 19.716 140.219 20.628 140.219 23.572V23.78C140.219 26.692 138.843 27.94 136.635 27.94C135.755 27.94 135.083 27.684 134.667 27.428V30.212H133.307ZM136.523 26.836C137.963 26.836 138.827 26.052 138.827 23.972V23.62C138.827 21.476 138.027 20.884 136.603 20.884C135.723 20.884 135.003 21.172 134.667 21.428V26.292C135.003 26.58 135.723 26.836 136.523 26.836ZM141.979 27.828V16.372H143.355V27.828H141.979ZM148.868 27.972C146.356 27.972 145.076 26.42 145.076 23.972V23.732C145.076 20.964 146.724 19.716 148.58 19.716C150.756 19.716 151.796 20.98 151.796 23.476V24.244H146.484C146.58 26.132 147.508 26.804 149.092 26.804C150.148 26.804 150.836 26.58 151.556 26.196V27.204C151.092 27.556 150.18 27.972 148.868 27.972ZM148.516 20.82C147.62 20.82 146.612 21.316 146.484 23.14H150.356C150.356 21.476 149.716 20.82 148.516 20.82ZM165.623 27.844H152.999V26.692H158.567V24.484H154.519V19.988H162.647V17.94H154.487V16.788H164.055V21.14H155.927V23.332H164.439V24.484H159.991V26.692H165.623V27.844ZM182.614 29.62H181.206V15.636H182.614V29.62ZM179.542 25.204L178.694 26.26C177.446 25.396 175.83 23.732 175.318 22.1C174.822 23.812 173.446 25.588 171.862 26.628L170.982 25.588C173.078 24.26 174.566 21.828 174.566 19.252V16.868H176.038V19.188C176.038 21.812 177.606 24.084 179.542 25.204ZM185.001 17.764V16.596H192.633V17.764H189.577V18.148C189.577 20.132 191.257 21.684 192.841 22.164L192.057 23.3C190.809 22.804 189.449 21.604 188.873 20.324C188.409 21.668 186.905 23.092 185.465 23.684L184.633 22.58C186.441 21.924 188.137 20.132 188.137 18.18V17.764H185.001ZM186.633 24.612H195.689V29.636H194.281V25.78H186.633V24.612ZM197.769 20.516H195.689V23.876H194.265V15.636H195.689V19.332H197.769V20.516ZM211.757 22.644H209.533V29.62H208.109V15.636H209.533V21.46H211.757V22.644ZM204.909 17.7H200.733V16.548H204.909V17.7ZM206.941 20.1H198.653V18.964H206.941V20.1ZM206.157 23.844C206.157 25.492 204.845 26.772 202.861 26.772C200.877 26.772 199.549 25.524 199.549 23.844C199.549 22.196 200.877 20.884 202.861 20.884C204.845 20.884 206.157 22.164 206.157 23.844ZM204.765 23.844C204.765 22.804 203.949 22.068 202.861 22.068C201.773 22.068 200.973 22.804 200.973 23.844C200.973 24.868 201.757 25.588 202.861 25.588C204.013 25.588 204.765 24.868 204.765 23.844ZM224.049 29.62H222.625V15.636H224.049V29.62ZM219.953 17.124C219.873 21.572 217.281 24.836 213.457 26.916L212.593 25.844C215.889 24.26 218.161 21.332 218.417 18.324H213.217V17.124H219.953Z" fill="white"/>
<defs>
<clipPath id="clip0_733_1079">
<rect width="24" height="24" fill="white" transform="translate(12 12)"/>
</clipPath>
</defs>
</svg>
